<?xml version="1.0" encoding="UTF-8" standalone="no"?>
<svg
   xmlns:dc="http://purl.org/dc/elements/1.1/"
   xmlns:cc="http://creativecommons.org/ns#"
   xmlns:rdf="http://www.w3.org/1999/02/22-rdf-syntax-ns#"
   xmlns:svg="http://www.w3.org/2000/svg"
   xmlns="http://www.w3.org/2000/svg"
   xmlns:sodipodi="http://sodipodi.sourceforge.net/DTD/sodipodi-0.dtd"
   xmlns:inkscape="http://www.inkscape.org/namespaces/inkscape"
   width="255.74399"
   height="179.00623"
   viewBox="0 0 255.74399 179.00623"
   version="1.1"
   preserveAspectRatio="xMidYMid"
   id="svg4052"
   sodipodi:docname="showHelpForTypeLight.svg"
   inkscape:version="0.92.2 5c3e80d, 2017-08-06">
  <metadata
     id="metadata4058">
    <rdf:RDF>
      <cc:Work
         rdf:about="">
        <dc:format>image/svg+xml</dc:format>
        <dc:type
           rdf:resource="http://purl.org/dc/dcmitype/StillImage" />
        <dc:title />
      </cc:Work>
    </rdf:RDF>
  </metadata>
  <defs
     id="defs4056">
    <inkscape:perspective
       sodipodi:type="inkscape:persp3d"
       inkscape:vp_x="0 : 90.000002 : 1"
       inkscape:vp_y="0 : 1000 : 0"
       inkscape:vp_z="256 : 90.000002 : 1"
       inkscape:persp3d-origin="128 : 60.000001 : 1"
       id="perspective4205" />
    <symbol
       width="256px"
       height="180px"
       viewBox="0 0 256 180"
       preserveAspectRatio="xMidYMid"
       id="svg_1">
      <g
         id="g4183">
        <path
           style="fill:#00a1e0"
           inkscape:connector-curvature="0"
           id="path4161"
           d="m 106.5532,159.61098 c 8.24793,8.59401 19.73091,13.92384 32.43067,13.92384 16.88202,0 31.61098,-9.41371 39.45453,-23.38856 6.81619,3.04561 14.36101,4.73965 22.29927,4.73965 30.44884,0 55.13432,-24.90043 55.13432,-55.61522 0,-30.71842 -24.68548,-55.61885 -55.13432,-55.61885 -3.71594,0 -7.34809,0.37159 -10.86001,1.08199 -6.90728,-12.32088 -20.06971,-20.64531 -35.17755,-20.64531 -6.32438,0 -12.30632,1.46087 -17.6325,4.05838 C 130.06562,11.67655 113.75192,0.128 94.7387,0.128 74.93858,0.128 58.06385,12.65654 51.58646,30.2271 48.75579,29.62599 45.82311,29.31269 42.81393,29.31269 19.23958,29.31269 0.128,48.621 0.128,72.44308 c 0,15.96396 8.58673,29.90237 21.34479,37.35975 -2.62666,6.04386 -4.08754,12.71434 -4.08754,19.72726 0,27.39594 22.24099,49.60413 49.67336,49.60413 16.10604,0 30.41969,-7.65774 39.49459,-19.52324"
           transform="matrix(1,0,0,-1,0,179.26222)" />
        <path
           style="fill:#ffffff"
           inkscape:connector-curvature="0"
           id="path4163"
           d="m 37.17007,75.33094 c -0.16029,-0.41895 0.05829,-0.50639 0.1093,-0.57925 0.48088,-0.34973 0.96906,-0.60111 1.46087,-0.88162 2.60844,-1.38437 5.07116,-1.78875 7.64682,-1.78875 5.24603,0 8.50294,2.79059 8.50294,7.28251 v 0.08743 c 0,4.15311 -3.67586,5.66134 -7.12586,6.75062 l -0.4481,0.14573 c -2.60115,0.84519 -4.84529,1.5738 -4.84529,3.28605 v 0.09108 c 0,1.46451 1.31151,2.54287 3.34435,2.54287 2.2587,0 4.94001,-0.75048 6.66683,-1.70496 0,0 0.50638,-0.32788 0.69218,0.16393 0.10201,0.26231 0.97635,2.61573 1.06742,2.87075 0.09837,0.27687 -0.0765,0.48088 -0.25501,0.59018 -1.97091,1.19857 -4.69593,2.01826 -7.51567,2.01826 l -0.5246,-0.0036 c -4.80158,0 -8.15321,-2.89989 -8.15321,-7.05664 v -0.08744 c 0,-4.38262 3.69772,-5.80342 7.16229,-6.79433 l 0.55739,-0.17123 c 2.52465,-0.77597 4.69957,-1.44266 4.69957,-3.22048 v -0.08743 c 0,-1.62481 -1.41351,-2.83432 -3.69408,-2.83432 -0.88527,0 -3.70865,0.01822 -6.75791,1.94541 -0.36795,0.21494 -0.58289,0.37159 -0.86705,0.54282 -0.14937,0.09472 -0.5246,0.25865 -0.68854,-0.2368 l -1.03464,-2.87075 z"
           transform="matrix(1,0,0,-1,0,168.28709)" />
        <path
           style="fill:#ffffff"
           inkscape:connector-curvature="0"
           id="path4165"
           d="m 113.96978,75.33094 c -0.1603,-0.41895 0.0583,-0.50639 0.10929,-0.57925 0.48089,-0.34973 0.96906,-0.60111 1.46088,-0.88162 2.60844,-1.38437 5.07116,-1.78875 7.64681,-1.78875 5.24603,0 8.50295,2.79059 8.50295,7.28251 v 0.08743 c 0,4.15311 -3.67587,5.66134 -7.12586,6.75062 l -0.4481,0.14573 c -2.60116,0.84519 -4.84529,1.5738 -4.84529,3.28605 v 0.09108 c 0,1.46451 1.3115,2.54287 3.34434,2.54287 2.25871,0 4.94001,-0.75048 6.66683,-1.70496 0,0 0.50639,-0.32788 0.69219,0.16393 0.102,0.26231 0.97634,2.61573 1.06742,2.87075 0.0984,0.27687 -0.0765,0.48088 -0.25502,0.59018 -1.9709,1.19857 -4.69592,2.01826 -7.51567,2.01826 l -0.5246,-0.0036 c -4.80157,0 -8.15321,-2.89989 -8.15321,-7.05664 v -0.08744 c 0,-4.38262 3.69773,-5.80342 7.16229,-6.79433 l 0.5574,-0.17123 c 2.52465,-0.77597 4.70321,-1.44266 4.70321,-3.22048 v -0.08743 c 0,-1.62481 -1.41716,-2.83432 -3.69773,-2.83432 -0.88526,0 -3.70865,0.01822 -6.7579,1.94541 -0.36795,0.21494 -0.58654,0.36431 -0.86341,0.54282 -0.0947,0.06193 -0.53918,0.23315 -0.69219,-0.2368 l -1.03463,-2.87075 z"
           transform="matrix(1,0,0,-1,0,168.28709)" />
        <path
           style="fill:#ffffff"
           inkscape:connector-curvature="0"
           id="path4167"
           d="m 166.39877,84.11367 c 0,-2.53922 -0.4736,-4.53927 -1.40623,-5.95278 -0.9217,-1.39894 -2.317,-2.0802 -4.2624,-2.0802 -1.94905,0 -3.33706,0.67761 -4.24418,2.0802 -0.91806,1.40987 -1.38437,3.41356 -1.38437,5.95278 0,2.53559 0.46631,4.53199 1.38437,5.93093 0.90712,1.38437 2.29513,2.05834 4.24418,2.05834 1.9454,0 3.3407,-0.67397 4.26604,-2.05834 0.92899,-1.39894 1.40259,-3.39534 1.40259,-5.93093 m 4.37898,4.70686 c -0.42989,1.45359 -1.10021,2.73595 -1.99277,3.80337 -0.89255,1.07107 -2.0219,1.93083 -3.36256,2.55744 -1.337,0.62297 -2.9181,0.93992 -4.69228,0.93992 -1.77782,0 -3.35892,-0.31695 -4.69593,-0.93992 -1.34065,-0.62661 -2.47,-1.48637 -3.3662,-2.55744 -0.88891,-1.07106 -1.55923,-2.35343 -1.99276,-3.80337 -0.42624,-1.4463 -0.64118,-3.0274 -0.64118,-4.70686 0,-1.67945 0.21494,-3.26419 0.64118,-4.70685 0.43353,-1.44995 1.10021,-2.73231 1.9964,-3.80337 0.89256,-1.07107 2.02556,-1.92719 3.36256,-2.53558 1.34066,-0.6084 2.91811,-0.91806 4.69593,-0.91806 1.77418,0 3.35163,0.30966 4.69228,0.91806 1.33701,0.60839 2.47001,1.46451 3.36256,2.53558 0.89256,1.06742 1.56288,2.34978 1.99277,3.80337 0.42988,1.4463 0.64482,3.03104 0.64482,4.70685 0,1.67582 -0.21494,3.26056 -0.64482,4.70686"
           transform="matrix(1,0,0,-1,0,168.27107)" />
        <path
           style="fill:#ffffff"
           inkscape:connector-curvature="0"
           id="path4169"
           d="m 206.73748,76.72514 c -0.14572,0.42624 -0.55739,0.26595 -0.55739,0.26595 -0.63754,-0.24409 -1.31515,-0.46996 -2.03648,-0.58289 -0.73226,-0.11294 -1.53738,-0.17123 -2.40079,-0.17123 -2.12027,0 -3.80337,0.63025 -5.00923,1.87619 -1.2095,1.24593 -1.88711,3.26055 -1.87982,5.98557 0.007,2.48094 0.60475,4.34619 1.67945,5.76699 1.06743,1.41351 2.69224,2.13849 4.85987,2.13849 1.80696,0 3.18405,-0.20766 4.62671,-0.66304 0,0 0.34609,-0.14937 0.51003,0.30237 0.38252,1.06378 0.66668,1.82518 1.0747,2.99461 0.11658,0.33152 -0.16758,0.4736 -0.26958,0.51368 -0.56832,0.22222 -1.90898,0.58289 -2.92175,0.7359 -0.9472,0.14572 -2.0547,0.22222 -3.28606,0.22222 -1.83975,0 -3.47913,-0.3133 -4.88172,-0.93991 -1.39894,-0.62297 -2.58658,-1.48273 -3.5265,-2.5538 -0.93991,-1.07106 -1.65395,-2.35342 -2.1312,-3.80337 -0.4736,-1.4463 -0.71404,-3.03468 -0.71404,-4.71414 0,-3.63215 0.97999,-6.56847 2.91446,-8.71788 1.93812,-2.1567 4.84894,-3.25327 8.64502,-3.25327 2.24414,0 4.54656,0.45538 6.20052,1.1075 0,0 0.31695,0.153 0.17851,0.52095 z"
           transform="matrix(1,0,0,-1,0,168.23753)" />
        <path
           style="fill:#ffffff"
           inkscape:connector-curvature="0"
           id="path4171"
           d="m 214.3992,86.55202 c 0.20766,1.40987 0.59747,2.58294 1.19858,3.49735 0.90712,1.38802 2.29149,2.14942 4.2369,2.14942 1.9454,0 3.2314,-0.76505 4.1531,-2.14942 0.61204,-0.91441 0.87798,-2.13848 0.98363,-3.49735 z m 14.74354,3.10026 c -0.3716,1.40258 -1.2933,2.81974 -1.89805,3.46821 -0.95448,1.02735 -1.88711,1.74503 -2.81245,2.14577 -1.2095,0.51732 -2.65945,0.85977 -4.24783,0.85977 -1.85068,0 -3.53014,-0.30967 -4.89265,-0.95085 -1.36616,-0.64118 -2.51373,-1.51552 -3.41356,-2.6048 -0.89985,-1.08563 -1.57746,-2.37893 -2.00734,-3.84709 -0.43353,-1.46087 -0.65211,-3.05289 -0.65211,-4.73235 0,-1.70861 0.22587,-3.30063 0.67397,-4.73236 0.45174,-1.44266 1.17307,-2.71409 2.14941,-3.76694 0.97271,-1.06014 2.22592,-1.89076 3.72687,-2.47001 1.49002,-0.5756 3.30063,-0.87434 5.38082,-0.87069 4.28062,0.01457 6.53569,0.96906 7.46467,1.48273 0.16394,0.09108 0.32059,0.25137 0.12386,0.7104 l -0.96905,2.71409 c -0.14573,0.40438 -0.55739,0.25502 -0.55739,0.25502 -1.06014,-0.39346 -2.56837,-1.10021 -6.08394,-1.09293 -2.29879,0.0037 -4.00375,0.68126 -5.07117,1.74139 -1.09656,1.08564 -1.6321,2.68131 -1.72682,4.93273 l 14.82368,-0.01457 c 0,0 0.38981,0.0073 0.42989,0.38616 0.0146,0.1603 0.51003,3.04562 -0.44081,6.38632 z"
           transform="matrix(1,0,0,-1,0,168.27693)" />
        <path
           style="fill:#ffffff"
           inkscape:connector-curvature="0"
           id="path4173"
           d="m 95.68299,86.55202 c 0.2113,1.40987 0.59746,2.58294 1.19857,3.49735 0.90713,1.38802 2.2915,2.14942 4.2369,2.14942 1.9454,0 3.23141,-0.76505 4.15675,-2.14942 0.6084,-0.91441 0.87434,-2.13848 0.97999,-3.49735 z m 14.73989,3.10026 c -0.3716,1.40258 -1.28965,2.81974 -1.8944,3.46821 -0.95449,1.02735 -1.88712,1.74503 -2.81246,2.14577 -1.2095,0.51732 -2.65944,0.85977 -4.24782,0.85977 -1.84704,0 -3.53015,-0.30967 -4.89266,-0.95085 -1.36615,-0.64118 -2.51372,-1.51552 -3.41356,-2.6048 -0.89984,-1.08563 -1.57745,-2.37893 -2.00733,-3.84709 -0.42989,-1.46087 -0.65212,-3.05289 -0.65212,-4.73235 0,-1.70861 0.22588,-3.30063 0.67397,-4.73236 0.45175,-1.44266 1.17307,-2.71409 2.14942,-3.76694 0.9727,-1.06014 2.22592,-1.89076 3.72687,-2.47001 1.49002,-0.5756 3.30062,-0.87434 5.38082,-0.87069 4.28062,0.01457 6.53568,0.96906 7.46467,1.48273 0.16393,0.09108 0.32059,0.25137 0.12386,0.7104 l -0.96541,2.71409 c -0.14937,0.40438 -0.56104,0.25502 -0.56104,0.25502 -1.06013,-0.39346 -2.56472,-1.10021 -6.08758,-1.09293 -2.29514,0.0037 -4.0001,0.68126 -5.06752,1.74139 -1.09657,1.08564 -1.6321,2.68131 -1.72682,4.93273 l 14.82368,-0.01457 c 0,0 0.38981,0.0073 0.42988,0.38616 0.0146,0.1603 0.51003,3.04562 -0.44445,6.38632 z"
           transform="matrix(1,0,0,-1,0,168.27693)" />
        <path
           style="fill:#ffffff"
           inkscape:connector-curvature="0"
           id="path4175"
           d="m 63.64176,76.81877 c -0.57925,0.46267 -0.65939,0.57925 -0.85612,0.87799 -0.29145,0.45538 -0.44081,1.10385 -0.44081,1.92718 0,1.30422 0.42988,2.2405 1.32244,2.87075 -0.01093,-0.0037 1.27507,1.11114 4.29883,1.07106 2.12391,-0.02914 4.02195,-0.34245 4.02195,-0.34245 v -6.73969 h 0.0036 c 0,0 -1.88347,-0.40438 -4.00375,-0.53189 -3.01646,-0.18215 -4.35712,0.8707 -4.34619,0.86705 m 5.89815,10.41556 c -0.60111,0.04372 -1.38073,0.06922 -2.31336,0.06922 -1.27143,0 -2.49915,-0.1603 -3.65036,-0.46996 -1.1585,-0.30966 -2.20042,-0.79419 -3.09662,-1.43537 -0.89984,-0.64482 -1.62481,-1.46816 -2.14941,-2.4445 -0.52461,-0.97635 -0.79055,-2.12756 -0.79055,-3.41721 0,-1.31151 0.22587,-2.45179 0.67761,-3.38442 0.45174,-0.93627 1.10385,-1.71589 1.93448,-2.317 0.82333,-0.6011 1.83975,-1.04192 3.02011,-1.30786 1.16214,-0.26595 2.48093,-0.40074 3.92359,-0.40074 1.51916,0 3.03468,0.12387 4.50284,0.37524 1.45359,0.24773 3.2387,0.60839 3.73416,0.72133 0.49181,0.11658 1.03827,0.26594 1.03827,0.26594 0.36796,0.09108 0.33881,0.48453 0.33881,0.48453 l -0.0073,13.55589 c 0,2.97275 -0.79419,5.17681 -2.35707,6.54297 -1.55559,1.36251 -3.84709,2.05105 -6.80891,2.05105 -1.11114,0 -2.89989,-0.15301 -3.97095,-0.36795 0,0 -3.2387,-0.62661 -4.57206,-1.66853 0,0 -0.29145,-0.18216 -0.13115,-0.59018 l 1.0492,-2.81974 c 0.13115,-0.36431 0.48453,-0.24044 0.48453,-0.24044 0,0 0.11294,0.04371 0.24409,0.12022 2.85253,1.55195 6.45917,1.50459 6.45917,1.50459 1.60296,0 2.83432,-0.32059 3.66494,-0.95813 0.80876,-0.61932 1.22043,-1.5556 1.22043,-3.53014 v -0.62661 c -1.27508,0.18215 -2.4445,0.2878 -2.4445,0.2878"
           transform="matrix(1,0,0,-1,0,168.24993)" />
        <path
           style="fill:#ffffff"
           inkscape:connector-curvature="0"
           id="path4177"
           d="m 189.09913,94.65897 c 0.11294,0.33517 -0.12386,0.49546 -0.22222,0.53189 -0.25138,0.09837 -1.51188,0.36431 -2.48458,0.42624 -1.86162,0.11294 -2.89625,-0.20037 -3.82159,-0.61568 -0.91806,-0.41531 -1.93812,-1.08563 -2.50644,-1.84704 v 1.80333 c 0,0.25137 -0.17851,0.45174 -0.42624,0.45174 h -3.79973 c -0.24773,0 -0.42624,-0.20037 -0.42624,-0.45174 V 72.84787 c 0,-0.24773 0.20402,-0.45174 0.45174,-0.45174 h 3.89445 c 0.24773,0 0.4481,0.20401 0.4481,0.45174 v 11.04581 c 0,1.48273 0.16394,2.96182 0.49182,3.89081 0.32059,0.91805 0.75776,1.65396 1.29693,2.1822 0.54282,0.5246 1.1585,0.89256 1.83247,1.10021 0.68854,0.2113 1.44995,0.28052 1.98912,0.28052 0.77598,0 1.62846,-0.20037 1.62846,-0.20037 0.28416,-0.03279 0.44445,0.14208 0.53917,0.40074 0.25502,0.67761 0.97635,2.7068 1.11478,3.11118"
           transform="matrix(1,0,0,-1,0,168.0365)" />
        <path
           style="fill:#ffffff"
           inkscape:connector-curvature="0"
           id="path4179"
           d="m 152.54377,105.76157 c -0.4736,0.14573 -0.90349,0.24409 -1.46452,0.34974 -0.56832,0.10201 -1.24593,0.15301 -2.01462,0.15301 -2.68131,0 -4.79429,-0.75776 -6.27702,-2.25142 -1.47545,-1.48638 -2.47729,-3.74873 -2.98004,-6.72512 l -0.18215,-1.00185 h -3.36621 c 0,0 -0.40802,0.01457 -0.49545,-0.42988 l -0.55011,-3.08569 c -0.0401,-0.29144 0.0874,-0.47724 0.48089,-0.47724 h 3.27512 l -3.32248,-18.55055 c -0.25866,-1.49366 -0.55739,-2.72138 -0.88891,-3.654 -0.32424,-0.91806 -0.64119,-1.6066 -1.03464,-2.10935 -0.37888,-0.48088 -0.7359,-0.8379 -1.35522,-1.04556 -0.51003,-0.17122 -1.10021,-0.25137 -1.74504,-0.25137 -0.35702,0 -0.83426,0.05829 -1.18764,0.13115 -0.34974,0.06922 -0.53553,0.14572 -0.80148,0.25866 0,0 -0.38252,0.14572 -0.53553,-0.2368 -0.12022,-0.31695 -0.99456,-2.71774 -1.10021,-3.01283 -0.102,-0.29509 0.0437,-0.5246 0.22952,-0.59382 0.43716,-0.15301 0.7614,-0.25501 1.35522,-0.39709 0.82334,-0.19309 1.51916,-0.20402 2.17127,-0.20402 1.36251,0 2.60845,0.19309 3.63944,0.56468 1.03463,0.37524 1.93812,1.02735 2.73959,1.90897 0.86341,0.95449 1.40623,1.95269 1.92355,3.31885 0.51367,1.34793 0.95448,3.02375 1.30422,4.97644 l 3.3407,18.89664 h 4.88172 c 0,0 0.41167,-0.01457 0.49546,0.43353 l 0.55375,3.08204 c 0.0364,0.29509 -0.0874,0.47724 -0.48453,0.47724 h -4.73964 c 0.0255,0.10565 0.24044,1.77418 0.78326,3.34435 0.23316,0.66668 0.67032,1.2095 1.03827,1.58109 0.36431,0.36431 0.78327,0.62297 1.24229,0.77233 0.46996,0.15301 1.00549,0.22587 1.59203,0.22587 0.44445,0 0.88527,-0.051 1.21679,-0.12022 0.45902,-0.0984 0.63754,-0.14936 0.75776,-0.18579 0.48453,-0.14573 0.5501,-0.004 0.64482,0.22951 l 1.133,3.11119 c 0.11658,0.33516 -0.17123,0.47724 -0.27323,0.51731"
           transform="matrix(1,0,0,-1,0,168.89186)" />
        <path
           style="fill:#ffffff"
           inkscape:connector-curvature="0"
           id="path4181"
           d="m 86.32174,63.55324 c 0,-0.24773 -0.17851,-0.4481 -0.42624,-0.4481 h -3.93088 c -0.24773,0 -0.4226,0.20037 -0.4226,0.4481 v 31.63648 c 0,0.24773 0.17487,0.44809 0.4226,0.44809 h 3.93088 c 0.24773,0 0.42624,-0.20036 0.42624,-0.44809 z"
           transform="matrix(1,0,0,-1,0,158.74295)" />
      </g>
    </symbol>
  </defs>
  <sodipodi:namedview
     pagecolor="#ffffff"
     bordercolor="#666666"
     borderopacity="1"
     objecttolerance="10"
     gridtolerance="10"
     guidetolerance="10"
     inkscape:pageopacity="0"
     inkscape:pageshadow="2"
     inkscape:window-width="1194"
     inkscape:window-height="799"
     id="namedview4054"
     showgrid="false"
     fit-margin-top="0"
     fit-margin-left="0"
     fit-margin-right="0"
     fit-margin-bottom="0"
     inkscape:zoom="1.789864"
     inkscape:cx="188.1084"
     inkscape:cy="96.668773"
     inkscape:window-x="188"
     inkscape:window-y="53"
     inkscape:window-maximized="0"
     inkscape:current-layer="g4050" />
  <g
     inkscape:groupmode="layer"
     id="layer4"
     inkscape:label="Icon"
     transform="translate(-0.12799877,-0.128)" />
  <g
     inkscape:groupmode="layer"
     id="layer3"
     inkscape:label="SF"
     style="display:inline"
     transform="translate(-0.12799877,-0.128)">
    <g
       id="g4050">
      <path
         d="m 106.5532,159.61098 c 8.24793,8.59401 19.73091,13.92383 32.43067,13.92383 16.88202,0 31.61098,-9.41371 39.45453,-23.38855 6.81619,3.04561 14.361,4.73964 22.29927,4.73964 30.44884,0 55.13432,-24.90043 55.13432,-55.615207 0,-30.718424 -24.68548,-55.618854 -55.13432,-55.618854 -3.71594,0 -7.34809,0.371594 -10.86001,1.081994 -6.90728,-12.320886 -20.06971,-20.645317 -35.17755,-20.645317 -6.32438,0 -12.30632,1.460874 -17.6325,4.058388 C 130.06562,11.676553 113.75192,0.12799973 94.738705,0.12799973 c -19.800123,0 -36.674855,12.52854127 -43.152246,30.09910127 -2.83067,-0.601108 -5.763347,-0.914413 -8.772529,-0.914413 -23.57435,0 -42.68593123,19.308308 -42.68593123,43.130388 0,15.963962 8.58673213,29.902374 21.34478723,37.359754 -2.626658,6.04386 -4.087532,12.71434 -4.087532,19.72726 0,27.39594 22.240984,49.60413 49.673353,49.60413 16.106043,0 30.419692,-7.65774 39.494593,-19.52324"
         id="path4028"
         inkscape:connector-curvature="0"
         style="fill:#616161;fill-opacity:1"
         transform="matrix(1,0,0,-1,0,179.26222)" />
      <text
         xml:space="preserve"
         style="font-style:normal;font-weight:normal;font-size:40px;line-height:1.25;font-family:sans-serif;letter-spacing:0px;word-spacing:0px;fill:#000000;fill-opacity:1;stroke:none"
         x="84.491951"
         y="145.61212"
         id="text26"><tspan
           sodipodi:role="line"
           id="tspan24"
           x="84.491951"
           y="145.61212"
           style="font-style:normal;font-variant:normal;font-weight:bold;font-stretch:normal;font-size:160px;font-family:sans-serif;-inkscape-font-specification:'sans-serif Bold';fill:#f3f3f3;fill-opacity:1">?</tspan></text>
    </g>
  </g>
</svg>
